<svg width="180" height="30" viewBox="0 0 180 30" fill="none" xmlns="http://www.w3.org/2000/svg">
<g clip-path="url(#clip0_406_2039)">
<path fill-rule="evenodd" clip-rule="evenodd" d="M12.2931 0C18.168 0 23.0735 4.18486 24.2936 9.79019L6.40977 23.5101C2.59065 21.3836 0 17.2583 0 12.5206C0 5.59683 5.50722 0 12.2931 0ZM24.5443 11.4233L7.88895 24.199C8.4405 24.4117 9.00877 24.5903 9.5854 24.7264L24.5694 13.235C24.5861 12.9969 24.5861 12.7587 24.5861 12.512C24.5945 12.1463 24.5777 11.7806 24.5443 11.4233ZM24.2936 15.2764L11.5994 25.0071C11.8251 25.0241 12.0591 25.0241 12.2931 25.0241C18.1513 25.0326 23.0568 20.8563 24.2936 15.2764Z" fill="#F02A2B"/>
<path fill-rule="evenodd" clip-rule="evenodd" d="M96.0713 22.5914H98.2191V15.3445H96.0713V22.5914ZM98.2191 9.79019V2.50071H95.8708L90.8399 9.79019H93.4723L96.0713 6.03062V9.79019H98.2191ZM83.4607 9.79019L78.4298 2.50071H76.0815V9.79019H78.2293V6.03062L80.8283 9.79019H83.4607ZM76.0815 15.3445V22.5914H78.2293V15.3445H76.0815ZM84.6725 15.3445L87.1545 18.9339L89.6365 15.3445H84.6725Z" fill="white"/>
<path fill-rule="evenodd" clip-rule="evenodd" d="M162.91 14.2557C162.935 19.036 166.754 22.9062 171.459 22.9062C174 22.9062 176.29 21.7749 177.852 19.9802V22.5914H180V14.2132V12.5546V2.50071H177.852V12.5461V14.2047C177.852 17.8027 174.986 20.7202 171.459 20.7202C167.933 20.7202 165.091 17.8282 165.066 14.2557V2.50071H162.918V14.2047V14.2557H162.91ZM174.819 4.6867H168.083V2.4922H174.819V4.6867Z" fill="white"/>
<path fill-rule="evenodd" clip-rule="evenodd" d="M43.3809 2.15197C47.3003 2.15197 50.7099 4.40601 52.4063 7.71477H49.8826C48.4201 5.66487 46.0551 4.33797 43.3809 4.33797C39.8877 4.33797 36.9126 6.60902 35.8095 9.78168H33.5531C34.7314 5.38418 38.6843 2.15197 43.3809 2.15197ZM52.3562 17.4114C50.6347 20.6606 47.2668 22.8806 43.3809 22.8806C38.7177 22.8806 34.7899 19.691 33.5782 15.3445H35.8429C36.9711 18.4661 39.9211 20.6861 43.3809 20.6861C46.0133 20.6861 48.3449 19.4018 49.8073 17.4114H52.3562Z" fill="white"/>
<path fill-rule="evenodd" clip-rule="evenodd" d="M63.7467 2.15197C68.4433 2.15197 72.3961 5.38418 73.5745 9.79019H71.3181C70.215 6.61752 67.2399 4.34647 63.7467 4.34647C60.2535 4.34647 57.2784 6.61752 56.1753 9.79019H53.9189C55.0973 5.38418 59.0501 2.15197 63.7467 2.15197ZM73.9338 15.3445V22.5914H71.7777V18.8914C69.9141 21.3241 67.0059 22.8806 63.7467 22.8806C59.0835 22.8806 55.1558 19.691 53.944 15.3445H56.2087C57.3369 18.4661 60.2869 20.6861 63.7467 20.6861C67.2065 20.6861 70.1481 18.4576 71.2847 15.3445H73.9338Z" fill="white"/>
<path fill-rule="evenodd" clip-rule="evenodd" d="M129.658 2.15197C134.354 2.15197 138.307 5.38418 139.486 9.79019H137.229C136.126 6.61752 133.151 4.34647 129.658 4.34647C126.165 4.34647 123.19 6.61752 122.086 9.79019H119.83C121.008 5.38418 124.961 2.15197 129.658 2.15197ZM139.452 15.3445C138.24 19.691 134.313 22.8806 129.65 22.8806C126.39 22.8806 123.482 21.3156 121.618 18.8914V29.7278H119.462V15.353H122.112C123.24 18.4746 126.19 20.6946 129.65 20.6946C133.109 20.6946 136.051 18.4661 137.187 15.353H139.452V15.3445Z" fill="white"/>
<path fill-rule="evenodd" clip-rule="evenodd" d="M150.717 2.15197C155.414 2.15197 159.367 5.38418 160.545 9.79019H158.289C157.186 6.61752 154.211 4.34647 150.717 4.34647C147.224 4.34647 144.249 6.61752 143.146 9.79019H140.89C142.068 5.38418 146.021 2.15197 150.717 2.15197ZM160.896 15.3445V22.5914H158.748V18.8914C156.885 21.3241 153.977 22.8806 150.717 22.8806C146.054 22.8806 142.126 19.691 140.915 15.3445H143.179C144.308 18.4661 147.258 20.6861 150.717 20.6861C154.177 20.6861 157.119 18.4576 158.255 15.3445H160.896Z" fill="white"/>
<path fill-rule="evenodd" clip-rule="evenodd" d="M117.465 21.2986C117.465 26.1043 113.638 30 108.916 30C105.055 30 101.787 27.3887 100.734 23.8078H103.008C103.977 26.1639 105.824 27.8225 108.924 27.8225C112.025 27.8225 115.317 24.905 115.317 21.3071V19.9802C113.755 21.7749 111.465 22.9062 108.924 22.9062C104.587 22.9062 101.002 19.6144 100.45 15.3445H102.623C103.158 18.3981 105.824 20.7287 108.924 20.7287C112.142 20.7287 114.716 18.4066 115.234 15.3445H117.473V21.2986H117.465ZM100.375 9.79019V2.50071H102.523V9.79019H100.375ZM115.309 9.79019V2.50071H117.465V9.79019H115.309Z" fill="white"/>
</g>
<defs>
<clipPath id="clip0_406_2039">
<rect width="180" height="30" fill="white"/>
</clipPath>
</defs>
</svg>
